<?xml version="1.0" standalone="no"?>
<!DOCTYPE svg PUBLIC "-//W3C//DTD SVG 20010904//EN"
 "http://www.w3.org/TR/2001/REC-SVG-20010904/DTD/svg10.dtd">
<svg version="1.0" xmlns="http://www.w3.org/2000/svg"
 width="462.000000pt" height="462.000000pt" viewBox="0 0 462.000000 462.000000"
 preserveAspectRatio="xMidYMid meet">
<metadata>
Created by potrace 1.14, written by Peter Selinger 2001-2017
</metadata>
<g transform="translate(0.000000,462.000000) scale(0.100000,-0.100000)"
fill="#000000" stroke="none">
<path d="M2860 4594 c-165 -42 -304 -158 -384 -320 -38 -78 -93 -254 -79 -254
3 0 95 45 204 100 110 55 199 96 199 91 0 -6 -6 -14 -14 -18 -8 -4 -32 -24
-53 -43 -21 -19 -89 -79 -151 -134 -61 -54 -112 -103 -112 -107 0 -5 9 -10 20
-10 11 -1 23 -2 28 -3 96 -24 221 -24 342 -1 43 9 136 51 187 85 149 100 269
283 323 493 l18 67 -66 20 c-169 50 -347 63 -462 34z"/>
<path d="M2210 3803 c-111 -11 -244 -47 -338 -90 -160 -74 -302 -216 -374
-373 -33 -71 -85 -224 -93 -274 -3 -17 -8 -38 -10 -46 -8 -31 -15 -98 -20
-197 -5 -126 -10 -167 -34 -275 -11 -54 -11 -60 8 -87 25 -35 26 -40 1 -70
-16 -18 -23 -21 -34 -12 -11 10 -25 -4 -71 -71 -154 -223 -221 -356 -280 -562
-38 -134 -44 -185 -40 -376 4 -246 34 -387 125 -576 102 -212 248 -381 455
-526 146 -102 440 -216 625 -242 25 -4 63 -9 85 -12 51 -7 282 -7 315 0 14 3
45 9 70 12 25 3 85 19 134 36 338 113 698 413 813 678 27 62 30 77 19 88 -11
11 -10 20 6 54 12 25 24 38 33 34 17 -6 35 47 70 205 24 110 30 187 29 344 -2
177 -18 249 -91 413 -84 190 -204 424 -259 504 -38 55 -60 100 -74 150 -29
107 -31 129 -35 288 -2 80 -5 154 -8 165 -3 11 -8 40 -12 65 -10 70 -45 191
-67 235 -24 48 -79 125 -128 179 -162 182 -333 295 -494 327 -51 11 -261 18
-326 12z"/>
</g>
</svg>
